# 3ds Max Wavefront OBJ Exporter v0.97b - (c)2007 guruware
# File Created: 11.05.2017 15:04:57

mtllib Empty shell.mtl

#
# object Box001
#

v  -10.4581 0.0000 14.8699
v  -10.2667 0.0000 15.8360
v  -10.7216 0.0000 15.5579
v  -11.1648 0.0000 15.0865
v  -2.4905 0.0000 16.3754
v  -2.4905 0.0000 15.3142
v  2.4269 0.0000 15.3142
v  2.4269 0.0000 18.7614
v  9.2092 0.0000 15.3142
v  9.2092 0.0000 18.7614
v  18.0585 0.0000 15.3142
v  18.0585 0.0000 18.7614
v  -12.1370 0.0000 7.2269
v  -11.1553 0.0000 7.2269
v  -11.1164 0.0000 13.4835
v  -12.0994 0.0000 13.5850
v  2.4269 0.0000 7.2269
v  2.4269 0.0000 2.7629
v  9.2092 0.0000 3.8059
v  9.2092 0.0000 8.0277
v  2.4269 0.0000 13.4769
v  9.2092 0.0000 13.4769
v  18.0585 0.0000 8.0277
v  18.0585 0.0000 13.4769
v  19.1697 0.0000 7.1906
v  19.5155 0.0000 6.7513
v  -10.2667 10.0000 15.8360
v  -10.7216 10.0000 15.5579
v  2.4269 10.0000 18.7614
v  -2.4905 10.0000 16.3754
v  9.2092 10.0000 18.7614
v  18.0585 10.0000 18.7614
v  18.0585 10.0000 15.3142
v  18.0585 10.0000 8.0277
v  18.0585 10.0000 13.4769
v  19.1697 10.0000 7.1906
v  19.5155 10.0000 6.7513
v  9.2092 10.0000 -3.6955
v  17.6279 10.0000 -3.6955
v  17.6279 0.0000 -3.6955
v  9.2092 0.0000 -3.6955
v  0.9171 10.0000 -3.6955
v  0.9171 0.0000 -3.6955
v  0.9439 10.0000 -2.7317
v  0.9439 0.0000 -2.7317
v  -14.3669 10.0000 -2.7317
v  -14.3669 0.0000 -2.7317
v  -14.3669 10.0000 7.1906
v  -14.3669 0.0000 7.1906
v  -12.1370 10.0000 7.2269
v  -12.0994 10.0000 13.5850
v  -11.6826 0.0000 14.5146
v  -11.6826 10.0000 14.5146
v  -10.8815 0.0000 14.3423
v  -2.4905 0.0000 13.4769
v  2.4269 0.0000 14.3656
v  -2.4905 0.0000 14.3656
v  9.2092 0.0000 14.3656
v  18.0585 0.0000 14.3656
v  18.0585 10.0000 14.3656
v  -11.1653 10.0000 15.0861
v  -9.0212 0.0000 16.3754
v  -9.0212 0.0000 15.3142
v  -9.0212 0.0000 7.2269
v  -9.0212 0.0000 13.4769
v  -9.0212 10.0000 16.3754
v  -9.0212 0.0000 14.3656
v  -9.0591 0.0000 15.3142
v  -9.6190 0.0000 15.2929
v  -9.2731 0.0000 16.2733
v  -9.6602 0.0000 16.1097
v  -9.0591 0.0000 13.4769
v  -10.2437 0.0000 13.4769
v  -9.0591 0.0000 14.3656
v  -10.2437 0.0000 14.3656
v  19.8968 0.0000 6.1796
v  19.8968 10.0000 6.1796
v  20.3780 0.0000 5.4716
v  20.3780 10.0000 5.4716
v  20.6249 0.0000 4.8121
v  20.6249 10.0000 4.8121
v  20.8760 0.0000 4.1071
v  20.8760 10.0000 4.1071
v  21.0473 0.0000 3.2157
v  21.0473 10.0000 3.2157
v  21.1484 0.0000 1.8096
v  21.1484 10.0000 1.8096
v  20.7833 0.0000 0.1716
v  20.7833 10.0000 0.1716
v  19.9200 0.0000 -1.6506
v  19.9200 10.0000 -1.6506
v  9.2092 0.0000 -2.9992
v  18.7246 0.0000 -2.9992
v  18.7246 10.0000 -2.9992
# 94 vertices

vn 0.0000 -1.0000 -0.0000
vn -0.4668 0.0009 0.8843
vn -0.4607 -0.0000 0.8876
vn -0.5217 -0.0000 0.8531
vn -0.5217 0.0000 0.8531
vn -0.2240 0.0000 0.9746
vn 0.0000 0.0000 1.0000
vn 1.0000 0.0000 -0.0000
vn 0.8949 0.0000 0.4463
vn 0.6996 0.0000 0.7146
vn 0.8095 0.0000 0.5872
vn 0.0000 0.0000 -1.0000
vn -0.7169 0.0000 -0.6972
vn -0.7128 0.0000 0.7013
vn -1.0000 0.0000 -0.0000
vn -0.7108 0.0000 0.7034
vn -0.9772 0.0000 0.2121
vn -0.8372 0.0000 0.5469
vn -0.8372 -0.0000 0.5468
vn -0.7349 -0.0000 0.6781
vn -0.7285 -0.0000 0.6851
vn -0.7284 0.0000 0.6852
vn -0.2029 0.0000 0.9792
vn -0.1958 0.0029 0.9806
vn -0.3983 0.0029 0.9173
vn 0.0000 1.0000 -0.0000
vn 0.8295 0.0000 0.5585
vn 0.8881 0.0000 0.4597
vn 0.9393 0.0000 0.3430
vn 0.9648 0.0000 0.2628
vn 0.9915 0.0000 0.1305
vn 0.9973 -0.0000 -0.0737
vn 0.9458 -0.0000 -0.3249
vn 0.8344 -0.0000 -0.5512
vn 0.6485 -0.0000 -0.7612
vn 0.5360 -0.0000 -0.8442
vn 0.5360 0.0000 -0.8442
# 37 vertex normals

vt 0.9669 0.0915 0.0000
vt 0.9669 0.0000 0.0000
vt 1.0000 0.0000 0.0000
vt 1.0000 0.0915 0.0000
vt 0.7500 0.0000 0.0000
vt 0.7500 0.0915 0.0000
vt 0.5000 0.1631 0.0000
vt 0.5000 0.0000 0.0000
vt 0.2500 0.1631 0.0000
vt 0.2500 0.0000 0.0000
vt 0.0000 0.1631 0.0000
vt 0.0000 0.0000 0.0000
vt 1.0000 0.5000 0.0000
vt 0.9671 0.5000 0.0000
vt 0.9669 0.2500 0.0000
vt 1.0000 0.2500 0.0000
vt 0.5000 0.5000 0.0000
vt 0.5000 0.7500 0.0000
vt 0.2500 0.7500 0.0000
vt 0.2500 0.5000 0.0000
vt 0.5000 0.2500 0.0000
vt 0.2500 0.2500 0.0000
vt 0.0000 0.5000 0.0000
vt 0.0000 0.2500 0.0000
vt 0.0000 0.7500 0.0000
vt 0.2500 0.7601 0.0000
vt 0.0000 0.7601 0.0000
vt 0.0331 0.0000 0.0000
vt 0.0331 1.0000 0.0000
vt 0.0000 1.0000 0.0000
vt 0.5000 1.0000 0.0000
vt 0.2500 1.0000 0.0000
vt 0.7500 1.0000 0.0000
vt 1.0000 1.0000 0.0000
vt 0.1631 0.0000 0.0000
vt 0.1631 1.0000 0.0000
vt 0.7601 0.0000 0.0000
vt 0.7601 1.0000 0.0000
vt 0.8266 0.0000 0.0000
vt 0.8266 1.0000 0.0000
vt 0.9669 0.1734 0.0000
vt 1.0000 0.1734 0.0000
vt 0.7500 0.2500 0.0000
vt 0.5000 0.2080 0.0000
vt 0.7500 0.1734 0.0000
vt 0.2500 0.2080 0.0000
vt 0.0000 0.2080 0.0000
vt 0.2080 1.0000 0.0000
vt 0.2080 0.0000 0.0000
vt 0.9085 0.0000 0.0000
vt 0.9085 1.0000 0.0000
vt 0.9191 0.0000 0.0000
vt 0.9191 0.0915 0.0000
vt 1.0000 0.7500 0.0000
vt 0.9193 0.5000 0.0000
vt 0.9191 0.2500 0.0000
vt 0.0809 1.0000 0.0000
vt 0.0809 0.0000 0.0000
vt 0.9191 0.1734 0.0000
vt 0.9200 0.0915 0.0000
vt 0.9663 0.0915 0.0000
vt 0.9200 0.0000 0.0000
vt 0.9663 0.0000 0.0000
vt 0.9200 0.2500 0.0000
vt 0.9663 0.2500 0.0000
vt 0.0337 0.0000 0.0000
vt 0.0800 0.0000 0.0000
vt 0.9200 0.1734 0.0000
vt 0.9663 0.1734 0.0000
vt 0.2500 0.7732 0.0000
vt 0.0000 0.7732 0.0000
vt 0.7732 0.0000 0.0000
vt 0.7732 1.0000 0.0000
vt 0.2500 0.7895 0.0000
vt 0.0000 0.7895 0.0000
vt 0.7895 0.0000 0.0000
vt 0.7895 1.0000 0.0000
vt 0.2500 0.8046 0.0000
vt 0.0000 0.8046 0.0000
vt 0.8046 0.0000 0.0000
vt 0.8046 1.0000 0.0000
vt 0.2500 0.8208 0.0000
vt 0.0000 0.8208 0.0000
vt 0.8208 0.0000 0.0000
vt 0.8208 1.0000 0.0000
vt 0.2500 0.8413 0.0000
vt 0.0000 0.8413 0.0000
vt 0.8413 0.0000 0.0000
vt 0.8413 1.0000 0.0000
vt 0.2500 0.8736 0.0000
vt 0.0000 0.8736 0.0000
vt 0.8736 0.0000 0.0000
vt 0.8736 1.0000 0.0000
vt 0.2500 0.9112 0.0000
vt 0.0000 0.9112 0.0000
vt 0.9112 0.0000 0.0000
vt 0.9112 1.0000 0.0000
vt 0.2500 0.9530 0.0000
vt 0.0000 0.9530 0.0000
vt 0.9530 0.0000 0.0000
vt 0.9530 1.0000 0.0000
vt 0.2500 0.9840 0.0000
vt 0.0000 0.9840 0.0000
vt 0.9840 0.0000 0.0000
vt 0.9840 1.0000 0.0000
# 105 texture coords

g Box001
usemtl wire_166229229
s 2
f 1/1/1 2/2/1 3/3/1 
f 3/3/1 4/4/1 1/1/1 
f 5/5/1 6/6/1 7/7/1 
f 7/7/1 8/8/1 5/5/1 
f 7/7/1 9/9/1 10/10/1 
f 10/10/1 8/8/1 7/7/1 
f 9/9/1 11/11/1 12/12/1 
f 12/12/1 10/10/1 9/9/1 
f 13/13/1 14/14/1 15/15/1 
f 15/15/1 16/16/1 13/13/1 
f 17/17/1 18/18/1 19/19/1 
f 17/17/1 19/19/1 20/20/1 
f 21/21/1 17/17/1 20/20/1 
f 21/21/1 20/20/1 22/22/1 
f 23/23/1 24/24/1 22/22/1 
f 22/22/1 20/20/1 23/23/1 
f 25/25/1 23/23/1 20/20/1 
f 20/20/1 19/19/1 25/25/1 
f 19/26/1 26/27/1 25/25/1 
s 8
f 2/28/2 27/29/3 28/30/4 
f 28/30/4 3/12/5 2/28/2 
f 29/31/6 30/32/6 5/10/6 
f 5/10/6 8/8/6 29/31/6 
f 31/33/7 29/31/6 8/8/6 
f 8/8/6 10/5/7 31/33/7 
f 32/34/7 31/33/7 10/5/7 
f 10/5/7 12/3/7 32/34/7 
s 16
f 11/35/8 33/36/8 32/30/8 
f 32/30/8 12/12/8 11/35/8 
f 34/31/9 35/32/8 24/10/8 
f 24/10/8 23/8/9 34/31/9 
f 36/33/10 34/31/9 23/8/9 
f 23/8/9 25/5/10 36/33/10 
f 26/37/11 37/38/11 36/33/10 
f 36/33/10 25/5/10 26/37/11 
s 32
f 38/32/12 39/30/12 40/12/12 
f 40/12/12 41/10/12 38/32/12 
f 42/31/13 38/32/12 41/10/12 
f 41/10/12 43/8/13 42/31/13 
f 44/33/13 42/31/13 43/8/13 
f 43/8/13 45/5/13 44/33/13 
f 46/34/12 44/33/13 45/5/13 
f 45/5/13 47/3/12 46/34/12 
s 64
f 48/32/14 46/30/15 47/12/15 
f 47/12/15 49/10/14 48/32/14 
f 50/31/16 48/32/14 49/10/14 
f 49/10/14 13/8/16 50/31/16 
f 51/33/17 50/31/16 13/8/16 
f 13/8/16 16/5/17 51/33/17 
f 52/39/18 53/40/19 51/33/17 
f 51/33/17 16/5/17 52/39/18 
s 2
f 16/16/1 15/15/1 54/41/1 
f 54/41/1 52/42/1 16/16/1 
f 55/43/1 21/21/1 56/44/1 
f 56/44/1 57/45/1 55/43/1 
f 21/21/1 22/22/1 58/46/1 
f 58/46/1 56/44/1 21/21/1 
f 22/22/1 24/24/1 59/47/1 
f 59/47/1 58/46/1 22/22/1 
s 16
f 24/10/8 35/32/8 60/48/8 
f 60/48/8 59/49/8 24/10/8 
s 64
f 4/50/20 61/51/20 53/40/19 
f 53/40/19 52/39/18 4/50/20 
s 2
f 52/42/1 54/41/1 1/1/1 
f 1/1/1 4/4/1 52/42/1 
f 57/45/1 56/44/1 7/7/1 
f 7/7/1 6/6/1 57/45/1 
f 56/44/1 58/46/1 9/9/1 
f 9/9/1 7/7/1 56/44/1 
f 58/46/1 59/47/1 11/11/1 
f 11/11/1 9/9/1 58/46/1 
s 16
f 59/49/8 60/48/8 33/36/8 
f 33/36/8 11/35/8 59/49/8 
s 64
f 3/3/21 28/34/22 61/51/20 
f 61/51/20 4/50/20 3/3/21 
s 2
f 6/6/1 5/5/1 62/52/1 
f 62/52/1 63/53/1 6/6/1 
f 14/14/1 13/13/1 49/54/1 
f 64/55/1 14/14/1 49/54/1 
f 49/54/1 47/34/1 45/33/1 
f 45/33/1 18/18/1 17/17/1 
f 49/54/1 45/33/1 17/17/1 
f 64/55/1 49/54/1 17/17/1 
f 17/17/1 21/21/1 55/43/1 
f 64/55/1 17/17/1 55/43/1 
f 64/55/1 55/43/1 65/56/1 
s 8
f 5/10/6 30/32/6 66/57/23 
f 66/57/23 62/58/24 5/10/6 
s 2
f 55/43/1 57/45/1 67/59/1 
f 67/59/1 65/56/1 55/43/1 
f 57/45/1 6/6/1 63/53/1 
f 63/53/1 67/59/1 57/45/1 
f 68/60/1 63/53/1 62/52/1 
f 69/61/1 68/60/1 62/52/1 
f 69/61/1 62/52/1 70/62/1 
f 69/61/1 70/62/1 71/63/1 
f 1/1/1 69/61/1 71/63/1 
f 1/1/1 71/63/1 2/2/1 
f 14/14/1 64/55/1 65/56/1 
f 14/14/1 65/56/1 72/64/1 
f 14/14/1 72/64/1 73/65/1 
f 14/14/1 73/65/1 15/15/1 
s 8
f 71/66/25 70/67/26 62/58/24 
f 71/66/25 62/58/24 66/57/23 
f 2/28/2 71/66/25 66/57/23 
f 2/28/2 66/57/23 27/29/3 
s 2
f 72/64/1 65/56/1 67/59/1 
f 73/65/1 72/64/1 67/59/1 
f 74/68/1 75/69/1 54/41/1 
f 67/59/1 74/68/1 54/41/1 
f 73/65/1 67/59/1 54/41/1 
f 15/15/1 73/65/1 54/41/1 
f 74/68/1 67/59/1 63/53/1 
f 75/69/1 74/68/1 63/53/1 
f 68/60/1 69/61/1 1/1/1 
f 63/53/1 68/60/1 1/1/1 
f 75/69/1 63/53/1 1/1/1 
f 54/41/1 75/69/1 1/1/1 
f 19/70/1 76/71/1 26/27/1 
s 16
f 76/72/27 77/73/27 37/38/11 
f 37/38/11 26/37/11 76/72/27 
s 2
f 19/74/1 78/75/1 76/71/1 
s 16
f 78/76/28 79/77/28 77/73/27 
f 77/73/27 76/72/27 78/76/28 
s 2
f 19/78/1 80/79/1 78/75/1 
s 16
f 80/80/29 81/81/29 79/77/28 
f 79/77/28 78/76/28 80/80/29 
s 2
f 19/82/1 82/83/1 80/79/1 
s 16
f 82/84/30 83/85/30 81/81/29 
f 81/81/29 80/80/29 82/84/30 
s 2
f 19/86/1 84/87/1 82/83/1 
s 16
f 84/88/31 85/89/31 83/85/30 
f 83/85/30 82/84/30 84/88/31 
s 2
f 19/90/1 86/91/1 84/87/1 
s 16
f 86/92/32 87/93/32 85/89/31 
f 85/89/31 84/88/31 86/92/32 
s 2
f 19/94/1 88/95/1 86/91/1 
s 16
f 88/96/33 89/97/33 87/93/32 
f 87/93/32 86/92/32 88/96/33 
s 2
f 19/98/1 90/99/1 88/95/1 
s 16
f 90/100/34 91/101/34 89/97/33 
f 89/97/33 88/96/33 90/100/34 
s 2
f 92/102/1 93/103/1 90/99/1 
f 90/99/1 19/98/1 92/102/1 
s 16
f 93/104/35 94/105/35 91/101/34 
f 91/101/34 90/100/34 93/104/35 
s 2
f 41/32/1 40/30/1 93/103/1 
f 93/103/1 92/102/1 41/32/1 
s 16
f 40/3/36 39/34/37 94/105/35 
f 94/105/35 93/104/35 40/3/36 
s off
f 41/10/1 92/102/1 43/8/1 
f 45/5/1 43/8/1 92/102/1 
f 92/102/1 19/98/1 45/5/1 
f 45/5/1 19/98/1 18/18/1 
# 154 faces

