# 3ds Max Wavefront OBJ Exporter v0.97b - (c)2007 guruware
# File Created: 18.05.2017 17:53:38

#
# object Box001
#

v  -11.0084 2.0108 14.9422
v  -10.5825 2.0028 15.3868
v  -10.4581 2.0993 14.8699
v  -10.1659 2.0070 15.6445
v  2.4774 1.9973 18.5418
v  2.4269 2.0993 15.3142
v  -2.4469 2.0276 16.1858
v  -2.4905 2.0993 15.3142
v  9.2092 2.0114 18.5493
v  9.2092 2.0993 15.3142
v  17.8853 1.9725 18.5882
v  17.8463 2.0114 15.3142
v  -11.8801 1.9983 13.5374
v  -11.1164 2.0993 13.4835
v  -12.0449 2.0699 7.1358
v  -11.1553 2.0993 7.2269
v  2.4269 2.0993 2.7629
v  2.4269 2.0993 7.2269
v  9.2092 2.0993 3.8059
v  9.2092 2.0993 8.0277
v  9.2092 2.0993 13.4769
v  2.4269 2.0993 13.4769
v  17.9058 2.0461 7.9516
v  17.8463 2.0114 13.4769
v  19.0156 2.0031 7.0333
v  19.3417 2.0088 6.6252
v  -10.5324 4.8773 15.3250
v  -10.1285 4.8773 15.5697
v  2.4941 4.8773 18.4690
v  -2.4233 4.8773 16.0830
v  9.2092 4.8773 18.4614
v  17.8463 4.8773 18.5493
v  17.7585 4.8773 15.3142
v  17.7900 4.8773 7.8938
v  17.7585 4.8773 13.4769
v  18.9598 4.8773 6.9762
v  19.2726 4.8773 6.5752
v  9.2092 2.0114 -3.4833
v  17.5642 1.9941 -3.4764
v  9.2092 4.8773 -3.3955
v  17.5442 4.8773 -3.4074
v  1.0929 1.9721 -3.5245
v  1.1321 4.8773 -3.4863
v  1.0342 2.0716 -2.6439
v  1.1590 4.8773 -2.5225
v  -14.1937 1.9725 -2.5585
v  -14.1547 4.8773 -2.5195
v  -14.1924 1.9728 7.0189
v  -14.1530 4.8773 6.9802
v  -11.9238 4.8773 7.0159
v  -11.8062 4.8773 13.5214
v  -11.4970 2.0014 14.3933
v  -11.4314 4.8773 14.3505
v  -10.8815 2.0993 14.3423
v  -2.4905 2.0993 14.3656
v  2.4269 2.0993 14.3656
v  -2.4905 2.0993 13.4769
v  9.2092 2.0993 14.3656
v  17.8463 2.0114 14.3656
v  17.7585 4.8773 14.3656
v  -10.9448 4.8773 14.8827
v  -9.0212 2.0993 15.3142
v  -8.9774 1.9990 16.1559
v  -9.0212 2.0993 13.4769
v  -9.0212 2.0993 7.2269
v  -8.9604 4.8771 16.0817
v  -9.0212 2.0993 14.3656
v  -9.0591 2.0993 15.3142
v  -9.5748 2.0100 15.9140
v  -9.6190 2.0993 15.2929
v  -9.5731 1.7993 16.2733
v  -9.0591 2.0993 13.4769
v  -10.2437 2.0993 13.4769
v  -10.2437 2.0993 14.3656
v  -9.0591 2.0993 14.3656
v  19.7211 2.0117 6.0613
v  19.6480 4.8773 6.0120
v  20.1830 2.0037 5.3706
v  20.1116 4.8773 5.3337
v  20.4252 2.0109 4.7392
v  20.3432 4.8773 4.7092
v  20.6666 2.0064 4.0500
v  20.5865 4.8773 4.0282
v  20.8331 2.0075 3.1875
v  20.7498 4.8773 3.1766
v  20.9279 2.0021 1.8259
v  20.8492 4.8773 1.8317
v  20.5760 2.0042 0.2428
v  20.4996 4.8773 0.2691
v  19.7357 2.0023 -1.5289
v  19.6697 4.8773 -1.4853
v  9.2092 2.0993 -2.9992
v  18.5814 2.0024 -2.8311
v  18.5301 4.8773 -2.7709
v  -10.4581 1.7993 14.8699
v  -10.7216 1.7993 15.5579
v  -11.1648 1.7993 15.0865
v  -10.2667 1.7993 15.8360
v  -2.4905 1.7993 16.3754
v  2.4269 1.7993 15.3142
v  2.4269 1.7993 18.7614
v  -2.4905 1.7993 15.3142
v  9.2092 1.7993 18.7614
v  9.2092 1.7993 15.3142
v  18.0585 1.7993 18.7614
v  18.0585 1.7993 15.3142
v  -12.1370 1.7993 7.2269
v  -11.1164 1.7993 13.4835
v  -12.0994 1.7993 13.5850
v  -11.1553 1.7993 7.2269
v  9.2092 1.7993 3.8059
v  2.4269 1.7993 7.2269
v  2.4269 1.7993 2.7629
v  9.2092 1.7993 8.0277
v  2.4269 1.7993 13.4769
v  9.2092 1.7993 13.4769
v  18.0585 1.7993 8.0277
v  18.0585 1.7993 13.4769
v  19.1697 1.7993 7.1906
v  19.5155 1.7993 6.7513
v  -10.7216 4.8773 15.5579
v  -10.2667 4.8773 15.8360
v  2.4269 4.8773 18.7614
v  -2.4905 4.8773 16.3754
v  9.2092 4.8773 18.7614
v  18.0585 4.8773 18.7614
v  18.0585 4.8773 15.3142
v  18.0585 4.8773 8.0277
v  18.0585 4.8773 13.4769
v  19.1697 4.8773 7.1906
v  19.5155 4.8773 6.7513
v  9.2092 4.8773 -3.6955
v  17.6279 1.7993 -3.6955
v  9.2092 1.7993 -3.6955
v  17.6279 4.8773 -3.6955
v  0.9171 4.8773 -3.6955
v  0.9171 1.7993 -3.6955
v  0.9439 4.8773 -2.7317
v  0.9439 1.7993 -2.7317
v  -14.3669 4.8773 -2.7317
v  -14.3669 1.7993 -2.7317
v  -14.3669 4.8773 7.1906
v  -14.3669 1.7993 7.1906
v  -12.1370 4.8773 7.2269
v  -12.0994 4.8773 13.5850
v  -11.6826 1.7993 14.5146
v  -11.6826 4.8773 14.5146
v  -10.8815 1.7993 14.3423
v  -2.4905 1.7993 13.4769
v  2.4269 1.7993 14.3656
v  -2.4905 1.7993 14.3656
v  9.2092 1.7993 14.3656
v  18.0585 1.7993 14.3656
v  18.0585 4.8773 14.3656
v  -11.1653 4.8773 15.0861
v  -9.0212 1.7993 16.3754
v  -9.0212 1.7993 15.3142
v  -9.0212 1.7993 7.2269
v  -9.0212 1.7993 13.4769
v  -9.0212 4.8773 16.3754
v  -9.0212 1.7993 14.3656
v  -9.0591 1.7993 15.3142
v  -9.6602 1.7993 16.1097
v  -9.6190 1.7993 15.2929
v  -9.2731 1.7993 16.2733
v  -9.0591 1.7993 13.4769
v  -10.2437 1.7993 13.4769
v  -9.0591 1.7993 14.3656
v  -10.2437 1.7993 14.3656
v  19.8968 1.7993 6.1796
v  19.8968 4.8773 6.1796
v  20.3780 1.7993 5.4716
v  20.3780 4.8773 5.4716
v  20.6249 1.7993 4.8121
v  20.6249 4.8773 4.8121
v  20.8760 1.7993 4.1071
v  20.8760 4.8773 4.1071
v  21.0473 1.7993 3.2157
v  21.0473 4.8773 3.2157
v  21.1484 1.7993 1.8096
v  21.1484 4.8773 1.8096
v  20.7833 1.7993 0.1716
v  20.7833 4.8773 0.1716
v  19.9200 1.7993 -1.6506
v  19.9200 4.8773 -1.6506
v  9.2092 1.7993 -2.9992
v  18.7246 1.7993 -2.9992
v  18.7246 4.8773 -2.9992
# 188 vertices

vn -0.1418 0.9823 0.1227
vn -0.1180 0.9809 0.1547
vn -0.0690 0.9944 0.0797
vn -0.0789 0.9860 0.1472
vn -0.0050 0.9995 0.0317
vn -0.0024 0.9999 0.0169
vn -0.0036 0.9973 0.0733
vn -0.0011 0.9991 0.0418
vn 0.0019 0.9996 0.0278
vn 0.0040 0.9999 0.0127
vn 0.0088 0.9998 0.0153
vn 0.0102 0.9999 0.0059
vn -0.1334 0.9906 0.0287
vn -0.0680 0.9976 0.0134
vn 0.0677 -0.8971 -0.4365
vn -0.0089 0.9643 -0.2648
vn -0.0133 0.9999 -0.0000
vn -0.0022 1.0000 -0.0016
vn 0.0058 1.0000 0.0001
vn 0.0039 1.0000 -0.0006
vn 0.0044 1.0000 0.0006
vn 0.0000 1.0000 -0.0000
vn 0.0069 0.9997 -0.0228
vn 0.0102 0.9999 0.0032
vn 0.0053 1.0000 0.0034
vn 0.0055 0.9999 0.0124
vn 0.5260 -0.0274 -0.8500
vn 0.5188 -0.0288 -0.8544
vn 0.4693 -0.0308 -0.8825
vn 0.4606 -0.0291 -0.8871
vn 0.2206 -0.0266 -0.9750
vn 0.2237 -0.0339 -0.9741
vn 0.2214 -0.0276 -0.9748
vn 0.2239 -0.0370 -0.9739
vn 0.0051 -0.0289 -0.9996
vn 0.0054 -0.0299 -0.9995
vn 0.0044 -0.0133 -0.9999
vn 0.0056 -0.0168 -0.9998
vn -0.9998 -0.0132 0.0117
vn -0.9996 -0.0212 0.0188
vn -0.9996 -0.0266 0.0100
vn -0.9994 -0.0306 0.0136
vn -0.8988 -0.0402 -0.4366
vn -0.9995 -0.0322 -0.0036
vn -0.8963 -0.0439 -0.4413
vn -0.9995 -0.0306 -0.0028
vn -0.7135 -0.0278 -0.7002
vn -0.7101 -0.0336 -0.7033
vn -0.8060 -0.0288 -0.5913
vn -0.8103 -0.0302 -0.5852
vn -0.0054 -0.0287 0.9996
vn 0.0009 -0.0253 0.9997
vn -0.0058 -0.0299 0.9995
vn 0.0014 -0.0239 0.9997
vn 0.6618 -0.0360 0.7488
vn 0.7145 -0.0216 0.6993
vn 0.7006 -0.0596 0.7111
vn 0.7099 -0.0447 0.7028
vn 0.0057 -0.0135 0.9999
vn 0.0051 -0.0169 0.9998
vn 0.7301 -0.0311 -0.6826
vn 0.9999 -0.0134 -0.0002
vn 0.7126 -0.0190 -0.7013
vn 0.7122 -0.0573 -0.6996
vn 0.7112 -0.0484 -0.7013
vn 0.9747 -0.0262 -0.2219
vn 0.9746 -0.0292 -0.2219
vn 0.8397 -0.0267 -0.5423
vn 0.8353 -0.0287 -0.5491
vn -0.1496 0.9854 0.0809
vn -0.0819 0.9953 0.0519
vn 0.0051 1.0000 -0.0000
vn 0.0102 0.9999 -0.0000
vn -0.9995 -0.0306 -0.0000
vn 0.7336 -0.0289 -0.6789
vn 0.7337 -0.0291 -0.6788
vn 0.7228 -0.0300 -0.6904
vn 0.7311 -0.0274 -0.6817
vn 0.0000 0.9982 0.0593
vn -0.0895 0.9795 0.1803
vn 0.0000 0.9629 -0.2699
vn -0.0062 0.9997 -0.0237
vn -0.0065 1.0000 -0.0000
vn -0.0080 1.0000 -0.0011
vn 0.2054 -0.1852 -0.9610
vn 0.2056 -0.0296 -0.9782
vn -0.0012 0.9982 0.0601
vn 0.9695 0.2427 -0.0346
vn -0.0257 0.9953 0.0931
vn -0.0824 0.9519 0.2951
vn 0.1858 -0.8472 -0.4977
vn 0.3732 -0.2866 -0.8824
vn 0.0083 1.0000 0.0003
vn -0.8303 -0.0303 -0.5565
vn -0.8290 -0.0295 -0.5584
vn 0.0078 0.9999 0.0066
vn -0.8872 -0.0292 -0.4605
vn -0.8875 -0.0291 -0.4600
vn 0.0076 1.0000 0.0037
vn -0.9387 -0.0293 -0.3435
vn -0.9394 -0.0298 -0.3415
vn 0.0081 1.0000 0.0001
vn -0.9649 -0.0296 -0.2610
vn -0.9643 -0.0291 -0.2632
vn 0.0079 1.0000 -0.0007
vn -0.9912 -0.0291 -0.1295
vn -0.9910 -0.0285 -0.1306
vn 0.0080 1.0000 -0.0019
vn -0.9969 -0.0282 0.0741
vn -0.9970 -0.0277 0.0728
vn 0.0076 1.0000 -0.0024
vn -0.9453 -0.0279 0.3249
vn -0.9453 -0.0279 0.3250
vn 0.0083 1.0000 -0.0046
vn -0.8340 -0.0277 0.5511
vn -0.8342 -0.0275 0.5508
vn 0.0114 0.9958 -0.0910
vn 0.0091 0.9999 -0.0135
vn -0.6478 -0.0275 0.7613
vn -0.6504 -0.0262 0.7592
vn 0.0129 0.9851 -0.1716
vn 0.0021 0.9999 -0.0161
vn -0.5370 -0.0264 0.8432
vn -0.5423 -0.0239 0.8399
vn -0.0039 0.9839 -0.1786
vn -0.0083 0.9936 -0.1129
vn -0.0034 1.0000 -0.0000
vn 0.0008 1.0000 -0.0053
vn 0.0000 -1.0000 -0.0000
vn -0.4656 0.0025 0.8850
vn -0.5217 -0.0000 0.8531
vn -0.5217 0.0000 0.8531
vn -0.4607 -0.0000 0.8876
vn -0.2240 0.0000 0.9746
vn 0.0000 0.0000 1.0000
vn 1.0000 0.0000 -0.0000
vn 0.8949 0.0000 0.4463
vn 0.6996 0.0000 0.7146
vn 0.8095 0.0000 0.5872
vn 0.0000 -0.0000 -1.0000
vn -0.7169 -0.0000 -0.6972
vn -0.7169 0.0000 -0.6972
vn 0.0000 0.0000 -1.0000
vn -0.7128 0.0000 0.7013
vn -1.0000 0.0000 -0.0000
vn -0.7108 0.0000 0.7034
vn -0.9773 0.0000 0.2121
vn -0.8372 0.0000 0.5469
vn -0.8372 -0.0000 0.5468
vn -0.7349 -0.0000 0.6781
vn -0.7285 -0.0000 0.6851
vn -0.7284 0.0000 0.6852
vn -0.2028 0.0004 0.9792
vn -0.1958 0.0029 0.9806
vn -0.3996 0.0057 0.9167
vn 0.8295 0.0000 0.5585
vn 0.8881 0.0000 0.4597
vn 0.9393 0.0000 0.3430
vn 0.9648 0.0000 0.2628
vn 0.9915 0.0000 0.1305
vn 0.9973 -0.0000 -0.0737
vn 0.9458 -0.0000 -0.3249
vn 0.8344 -0.0000 -0.5512
vn 0.6485 -0.0000 -0.7612
vn 0.5360 -0.0000 -0.8442
vn 0.0000 1.0000 0.0000
vn -0.0000 1.0000 0.0000
vn 0.0001 1.0000 -0.0000
vn -0.0000 1.0000 -0.0000
vn 0.0001 1.0000 -0.0004
# 170 vertex normals

g Box001
f 1//1 2//2 3//3 
f 4//4 3//3 2//2 
f 5//5 6//6 7//7 
f 8//8 7//7 6//6 
f 5//5 9//9 6//6 
f 10//10 6//6 9//9 
f 9//9 11//11 10//10 
f 12//12 10//10 11//11 
f 13//13 14//14 15//15 
f 16//16 15//15 14//14 
f 17//17 18//18 19//19 
f 19//19 18//18 20//20 
f 21//21 20//20 22//22 
f 20//20 18//18 22//22 
f 20//20 21//21 23//23 
f 24//24 23//23 21//21 
f 19//19 20//20 25//25 
f 23//23 25//25 20//20 
f 26//26 19//19 25//25 
f 2//27 27//28 4//29 
f 28//30 4//29 27//28 
f 5//31 7//32 29//33 
f 30//34 29//33 7//32 
f 9//35 5//31 31//36 
f 29//33 31//36 5//31 
f 11//37 9//35 32//38 
f 31//36 32//38 9//35 
f 11//39 32//40 12//41 
f 33//42 12//41 32//40 
f 23//43 24//44 34//45 
f 35//46 34//45 24//44 
f 25//47 23//43 36//48 
f 34//45 36//48 23//43 
f 25//47 36//48 26//49 
f 37//50 26//49 36//48 
f 38//51 39//52 40//53 
f 41//54 40//53 39//52 
f 42//55 38//51 43//56 
f 40//53 43//56 38//51 
f 44//57 42//55 45//58 
f 43//56 45//58 42//55 
f 46//59 44//57 47//60 
f 45//58 47//60 44//57 
f 48//61 46//62 49//63 
f 47//62 49//63 46//62 
f 15//64 48//61 50//65 
f 49//63 50//65 48//61 
f 13//66 15//64 51//67 
f 50//65 51//67 15//64 
f 13//66 51//67 52//68 
f 53//69 52//68 51//67 
f 52//70 54//71 13//13 
f 14//14 13//13 54//71 
f 55//22 56//22 57//22 
f 22//22 57//22 56//22 
f 56//22 58//72 22//22 
f 21//21 22//22 58//72 
f 58//72 59//73 21//21 
f 24//24 21//21 59//73 
f 59//74 60//74 24//44 
f 35//46 24//44 60//74 
f 52//68 53//69 1//75 
f 61//76 1//75 53//69 
f 1//1 3//3 52//70 
f 54//71 52//70 3//3 
f 8//8 6//6 55//22 
f 56//22 55//22 6//6 
f 6//6 10//10 56//22 
f 58//72 56//22 10//10 
f 10//10 12//12 58//72 
f 59//73 58//72 12//12 
f 12//41 33//42 59//74 
f 60//74 59//74 33//42 
f 1//75 61//76 2//77 
f 27//78 2//77 61//76 
f 62//79 63//80 8//8 
f 7//7 8//8 63//80 
f 22//22 18//18 57//22 
f 64//22 57//22 65//81 
f 57//22 18//18 65//81 
f 15//15 16//16 48//82 
f 16//16 65//81 48//82 
f 65//81 18//18 48//82 
f 46//83 48//82 44//84 
f 48//82 18//18 44//84 
f 44//84 18//18 17//17 
f 63//85 66//86 7//32 
f 30//34 7//32 66//86 
f 64//22 67//22 57//22 
f 55//22 57//22 67//22 
f 67//22 62//79 55//22 
f 8//8 55//22 62//79 
f 62//79 68//87 63//80 
f 4//4 69//88 3//3 
f 3//3 69//88 70//89 
f 69//88 71//90 70//89 
f 71//90 63//80 70//89 
f 63//80 68//87 70//89 
f 65//81 16//16 64//22 
f 64//22 16//16 72//22 
f 72//22 16//16 73//22 
f 73//22 16//16 14//14 
f 71//91 69//92 63//85 
f 63//85 69//92 66//86 
f 28//30 66//86 4//29 
f 66//86 69//92 4//29 
f 74//22 75//22 54//71 
f 14//14 54//71 73//22 
f 64//22 72//22 67//22 
f 72//22 73//22 67//22 
f 73//22 54//71 67//22 
f 54//71 75//22 67//22 
f 70//89 68//87 3//3 
f 54//71 3//3 74//22 
f 67//22 75//22 62//79 
f 75//22 74//22 62//79 
f 74//22 3//3 62//79 
f 3//3 68//87 62//79 
f 76//93 19//19 26//26 
f 26//49 37//50 76//94 
f 77//95 76//94 37//50 
f 78//96 19//19 76//93 
f 76//94 77//95 78//97 
f 79//98 78//97 77//95 
f 80//99 19//19 78//96 
f 78//97 79//98 80//100 
f 81//101 80//100 79//98 
f 82//102 19//19 80//99 
f 80//100 81//101 82//103 
f 83//104 82//103 81//101 
f 84//105 19//19 82//102 
f 82//103 83//104 84//106 
f 85//107 84//106 83//104 
f 86//108 19//19 84//105 
f 84//106 85//107 86//109 
f 87//110 86//109 85//107 
f 88//111 19//19 86//108 
f 86//109 87//110 88//112 
f 89//113 88//112 87//110 
f 90//114 19//19 88//111 
f 88//112 89//113 90//115 
f 91//116 90//115 89//113 
f 19//19 90//114 92//117 
f 93//118 92//117 90//114 
f 90//115 91//116 93//119 
f 94//120 93//119 91//116 
f 92//117 93//118 38//121 
f 39//122 38//121 93//118 
f 93//119 94//120 39//123 
f 41//124 39//123 94//120 
f 92//125 38//125 42//125 
f 42//126 44//126 92//126 
f 19//127 92//127 44//127 
f 19//128 44//128 17//128 
f 95//129 96//129 97//129 
f 96//129 95//129 98//129 
f 99//129 100//129 101//129 
f 100//129 99//129 102//129 
f 100//129 103//129 101//129 
f 103//129 100//129 104//129 
f 104//129 105//129 103//129 
f 105//129 104//129 106//129 
f 107//129 108//129 109//129 
f 108//129 107//129 110//129 
f 111//129 112//129 113//129 
f 114//129 112//129 111//129 
f 115//129 114//129 116//129 
f 115//129 112//129 114//129 
f 117//129 116//129 114//129 
f 116//129 117//129 118//129 
f 119//129 114//129 111//129 
f 114//129 119//129 117//129 
f 119//129 111//129 120//129 
f 98//130 121//131 96//132 
f 121//131 98//130 122//133 
f 123//134 99//134 101//134 
f 99//134 123//134 124//134 
f 125//135 101//134 103//135 
f 101//134 125//135 123//134 
f 126//135 103//135 105//135 
f 103//135 126//135 125//135 
f 106//136 126//136 105//136 
f 126//136 106//136 127//136 
f 128//137 118//136 117//137 
f 118//136 128//137 129//136 
f 130//138 117//137 119//138 
f 117//137 130//138 128//137 
f 120//139 130//138 119//138 
f 130//138 120//139 131//139 
f 132//140 133//140 134//140 
f 133//140 132//140 135//140 
f 136//141 134//140 137//141 
f 134//140 136//141 132//140 
f 138//142 137//141 139//142 
f 137//141 138//142 136//141 
f 140//143 139//142 141//143 
f 139//142 140//143 138//142 
f 142//144 141//145 143//144 
f 141//145 142//144 140//145 
f 144//146 143//144 107//146 
f 143//144 144//146 142//144 
f 145//147 107//146 109//147 
f 107//146 145//147 144//146 
f 146//148 145//147 109//147 
f 145//147 146//148 147//149 
f 109//129 148//129 146//129 
f 148//129 109//129 108//129 
f 149//129 150//129 151//129 
f 150//129 149//129 115//129 
f 115//129 152//129 150//129 
f 152//129 115//129 116//129 
f 116//129 153//129 152//129 
f 153//129 116//129 118//129 
f 118//136 154//136 153//136 
f 154//136 118//136 129//136 
f 97//150 147//149 146//148 
f 147//149 97//150 155//150 
f 146//129 95//129 97//129 
f 95//129 146//129 148//129 
f 151//129 100//129 102//129 
f 100//129 151//129 150//129 
f 150//129 104//129 100//129 
f 104//129 150//129 152//129 
f 152//129 106//129 104//129 
f 106//129 152//129 153//129 
f 153//136 127//136 106//136 
f 127//136 153//136 154//136 
f 96//151 155//150 97//150 
f 155//150 96//151 121//152 
f 102//129 156//129 157//129 
f 156//129 102//129 99//129 
f 149//129 112//129 115//129 
f 158//129 149//129 159//129 
f 158//129 112//129 149//129 
f 143//129 110//129 107//129 
f 143//129 158//129 110//129 
f 143//129 112//129 158//129 
f 139//129 143//129 141//129 
f 139//129 112//129 143//129 
f 113//129 112//129 139//129 
f 99//134 160//153 156//154 
f 160//153 99//134 124//134 
f 149//129 161//129 159//129 
f 161//129 149//129 151//129 
f 151//129 157//129 161//129 
f 157//129 151//129 102//129 
f 156//129 162//129 157//129 
f 95//129 163//129 98//129 
f 164//129 163//129 95//129 
f 164//129 165//129 163//129 
f 164//129 156//129 165//129 
f 164//129 162//129 156//129 
f 159//129 110//129 158//129 
f 166//129 110//129 159//129 
f 167//129 110//129 166//129 
f 108//129 110//129 167//129 
f 156//154 163//155 165//22 
f 160//153 163//155 156//154 
f 98//130 160//153 122//133 
f 98//130 163//155 160//153 
f 148//129 168//129 169//129 
f 167//129 148//129 108//129 
f 161//129 166//129 159//129 
f 161//129 167//129 166//129 
f 161//129 148//129 167//129 
f 161//129 168//129 148//129 
f 95//129 162//129 164//129 
f 169//129 95//129 148//129 
f 157//129 168//129 161//129 
f 157//129 169//129 168//129 
f 157//129 95//129 169//129 
f 157//129 162//129 95//129 
f 120//129 111//129 170//129 
f 170//156 131//139 120//139 
f 131//139 170//156 171//156 
f 170//129 111//129 172//129 
f 172//157 171//156 170//156 
f 171//156 172//157 173//157 
f 172//129 111//129 174//129 
f 174//158 173//157 172//157 
f 173//157 174//158 175//158 
f 174//129 111//129 176//129 
f 176//159 175//158 174//158 
f 175//158 176//159 177//159 
f 176//129 111//129 178//129 
f 178//160 177//159 176//159 
f 177//159 178//160 179//160 
f 178//129 111//129 180//129 
f 180//161 179//160 178//160 
f 179//160 180//161 181//161 
f 180//129 111//129 182//129 
f 182//162 181//161 180//161 
f 181//161 182//162 183//162 
f 182//129 111//129 184//129 
f 184//163 183//162 182//162 
f 183//162 184//163 185//163 
f 186//129 184//129 111//129 
f 184//129 186//129 187//129 
f 187//164 185//163 184//163 
f 185//163 187//164 188//164 
f 134//129 187//129 186//129 
f 187//129 134//129 133//129 
f 133//165 188//164 187//164 
f 188//164 133//165 135//165 
f 137//129 134//129 186//129 
f 186//129 139//129 137//129 
f 139//129 186//129 111//129 
f 113//129 139//129 111//129 
f 28//166 27//167 121//22 
f 121//22 122//168 28//166 
f 29//22 30//169 124//22 
f 124//22 123//22 29//22 
f 31//22 29//22 123//22 
f 123//22 125//22 31//22 
f 32//22 31//22 125//22 
f 125//22 126//22 32//22 
f 33//22 32//22 126//22 
f 126//22 127//22 33//22 
f 34//22 35//22 129//22 
f 129//22 128//22 34//22 
f 36//22 34//22 128//22 
f 128//22 130//22 36//22 
f 37//22 36//22 130//22 
f 130//22 131//22 37//22 
f 40//22 41//22 135//22 
f 135//22 132//22 40//22 
f 43//22 40//22 132//22 
f 132//22 136//22 43//22 
f 45//22 43//22 136//22 
f 136//22 138//22 45//22 
f 47//22 45//22 138//22 
f 138//22 140//22 47//22 
f 49//22 47//22 140//22 
f 140//22 142//22 49//22 
f 50//22 49//22 142//22 
f 142//22 144//22 50//22 
f 51//169 50//22 144//22 
f 144//22 145//169 51//169 
f 53//167 51//169 145//169 
f 145//169 147//167 53//167 
f 35//22 60//22 154//22 
f 154//22 129//22 35//22 
f 61//167 53//167 147//167 
f 147//167 155//167 61//167 
f 60//22 33//22 127//22 
f 127//22 154//22 60//22 
f 27//167 61//167 155//167 
f 155//167 121//22 27//167 
f 30//169 66//170 160//170 
f 160//170 124//22 30//169 
f 66//170 28//166 122//168 
f 122//168 160//170 66//170 
f 77//22 37//22 131//22 
f 131//22 171//22 77//22 
f 79//22 77//22 171//22 
f 171//22 173//22 79//22 
f 81//22 79//22 173//22 
f 173//22 175//22 81//22 
f 83//22 81//22 175//22 
f 175//22 177//22 83//22 
f 85//22 83//22 177//22 
f 177//22 179//22 85//22 
f 87//22 85//22 179//22 
f 179//22 181//22 87//22 
f 89//22 87//22 181//22 
f 181//22 183//22 89//22 
f 91//22 89//22 183//22 
f 183//22 185//22 91//22 
f 94//22 91//22 185//22 
f 185//22 188//22 94//22 
f 41//22 94//22 188//22 
f 188//22 135//22 41//22 
# 372 faces

