# 3ds Max Wavefront OBJ Exporter v0.97b - (c)2007 guruware
# File Created: 28.05.2017 16:02:09

mtllib table and chair.mtl

#
# object desk
#

v  -57.6347 0.2233 28.2655
v  -57.6347 0.2233 20.4978
v  -48.6776 0.2233 20.4978
v  -48.6776 0.2233 28.2655
v  -48.6776 47.0844 28.2655
v  -48.6776 47.0844 20.4978
v  52.0634 47.0844 20.4978
v  52.0634 47.0844 28.2655
v  52.0634 0.2233 28.2655
v  52.0634 0.2233 20.4978
v  58.2859 0.2233 20.4978
v  58.2859 0.2233 28.2655
v  -57.6347 47.0844 20.4978
v  -57.6347 47.0844 -21.7942
v  -48.6776 47.0844 -21.7942
v  52.0634 47.0844 -21.7942
v  58.2859 47.0844 -21.7942
v  58.2859 47.0844 20.4978
v  -57.6347 0.2233 -21.7942
v  -57.6347 0.2233 -29.2438
v  -48.6776 0.2233 -29.2438
v  -48.6776 0.2233 -21.7942
v  -48.6776 47.0844 -29.2438
v  52.0634 47.0844 -29.2438
v  52.0634 0.2233 -21.7942
v  52.0634 0.2233 -29.2438
v  58.2859 0.2233 -29.2438
v  58.2859 0.2233 -21.7942
v  -57.6347 54.0396 28.2655
v  -48.6776 54.0396 28.2655
v  -48.6776 54.0396 20.4978
v  -57.6347 54.0396 20.4978
v  52.0634 54.0396 28.2655
v  52.0634 54.0396 20.4978
v  58.2859 54.0396 28.2655
v  58.2859 54.0396 20.4978
v  -48.6776 54.0396 -21.7942
v  -57.6347 54.0396 -21.7942
v  52.0634 54.0396 -21.7942
v  58.2859 54.0396 -21.7942
v  -48.6776 54.0396 -29.2438
v  -57.6347 54.0396 -29.2438
v  52.0634 54.0396 -29.2438
v  58.2859 54.0396 -29.2438
v  -57.6347 47.0844 28.2655
v  58.2859 47.0844 28.2655
v  58.2859 47.0844 -29.2438
v  -57.6347 47.0844 -29.2438
# 48 vertices

vn 0.0000 -1.0000 -0.0000
vn 0.0000 -1.0000 0.0000
vn 0.0000 1.0000 -0.0000
vn 0.0000 1.0000 0.0000
vn 0.0000 0.0000 1.0000
vn 1.0000 0.0000 -0.0000
vn 0.0000 0.0000 -1.0000
vn -1.0000 0.0000 -0.0000
vn 0.0000 -0.0000 1.0000
# 9 vertex normals

g desk
usemtl wire_135110008
f 1//1 2//1 3//1 
f 3//1 4//1 1//1 
f 5//1 6//2 7//2 
f 7//2 8//1 5//1 
f 9//1 10//1 11//1 
f 11//1 12//1 9//1 
f 13//2 14//2 15//1 
f 15//1 6//2 13//2 
f 6//2 15//1 16//1 
f 16//1 7//2 6//2 
f 7//2 16//1 17//2 
f 17//2 18//2 7//2 
f 19//1 20//1 21//1 
f 21//1 22//1 19//1 
f 15//1 23//1 24//1 
f 24//1 16//1 15//1 
f 25//1 26//1 27//1 
f 27//1 28//1 25//1 
f 29//3 30//3 31//3 
f 31//3 32//3 29//3 
f 30//3 33//3 34//3 
f 34//3 31//3 30//3 
f 33//3 35//3 36//3 
f 36//3 34//3 33//3 
f 32//3 31//3 37//4 
f 37//4 38//4 32//3 
f 31//3 34//3 39//4 
f 39//4 37//4 31//3 
f 34//3 36//3 40//4 
f 40//4 39//4 34//3 
f 38//4 37//4 41//4 
f 41//4 42//4 38//4 
f 37//4 39//4 43//4 
f 43//4 41//4 37//4 
f 39//4 40//4 44//4 
f 44//4 43//4 39//4 
f 45//5 5//5 30//5 
f 30//5 29//5 45//5 
f 5//5 8//5 33//5 
f 33//5 30//5 5//5 
f 8//5 46//5 35//5 
f 35//5 33//5 8//5 
f 46//6 18//6 36//6 
f 36//6 35//6 46//6 
f 18//6 17//6 40//6 
f 40//6 36//6 18//6 
f 17//6 47//6 44//6 
f 44//6 40//6 17//6 
f 47//7 24//7 43//7 
f 43//7 44//7 47//7 
f 24//7 23//7 41//7 
f 41//7 43//7 24//7 
f 23//7 48//7 42//7 
f 42//7 41//7 23//7 
f 48//8 14//8 38//8 
f 38//8 42//8 48//8 
f 14//8 13//8 32//8 
f 32//8 38//8 14//8 
f 13//8 45//8 29//8 
f 29//8 32//8 13//8 
f 45//8 13//8 2//8 
f 2//8 1//8 45//8 
f 13//7 6//7 3//7 
f 3//7 2//7 13//7 
f 6//6 5//6 4//6 
f 4//6 3//6 6//6 
f 5//5 45//5 1//5 
f 1//5 4//5 5//5 
f 8//8 7//8 10//8 
f 10//8 9//8 8//8 
f 7//7 18//7 11//7 
f 11//7 10//7 7//7 
f 18//6 46//6 12//6 
f 12//6 11//6 18//6 
f 46//5 8//5 9//5 
f 9//5 12//5 46//5 
f 15//9 14//9 19//9 
f 19//9 22//9 15//9 
f 14//8 48//8 20//8 
f 20//8 19//8 14//8 
f 48//7 23//7 21//7 
f 21//7 20//7 48//7 
f 23//6 15//6 22//6 
f 22//6 21//6 23//6 
f 17//9 16//9 25//9 
f 25//9 28//9 17//9 
f 16//8 24//8 26//8 
f 26//8 25//8 16//8 
f 24//7 47//7 27//7 
f 27//7 26//7 24//7 
f 47//6 17//6 28//6 
f 28//6 27//6 47//6 
# 92 faces

#
# object chair
#

v  -19.3121 0.1139 53.8467
v  -19.3121 0.1139 50.0837
v  -16.3634 0.1139 50.0837
v  -16.3634 0.1139 53.8467
v  -16.3634 29.2103 53.8467
v  -16.3634 29.2103 50.0837
v  16.8006 29.2103 50.0837
v  16.8006 29.2103 53.8467
v  16.8006 0.1139 53.8467
v  16.8006 0.1139 50.0837
v  18.8490 0.1139 50.0837
v  18.8490 0.1139 53.8467
v  -19.3121 29.2103 50.0837
v  -19.3121 29.2103 20.5605
v  -16.3634 29.2103 20.5605
v  16.8006 29.2103 20.5605
v  18.8490 29.2103 20.5605
v  18.8490 29.2103 50.0837
v  -19.3121 0.1139 20.5605
v  -19.3121 0.1139 16.9517
v  -16.3634 0.1139 16.9517
v  -16.3634 0.1139 20.5605
v  -16.3634 29.2103 16.9517
v  16.8006 29.2103 16.9517
v  16.8006 0.1139 20.5605
v  16.8006 0.1139 16.9517
v  18.8490 0.1139 16.9517
v  18.8490 0.1139 20.5605
v  -19.3121 82.2103 53.8467
v  -16.3634 82.2103 53.8467
v  -16.3634 82.2103 50.0837
v  -19.3121 82.2103 50.0837
v  -16.3634 32.2103 53.8467
v  16.8006 32.2103 53.8467
v  16.8006 32.2103 50.0837
v  -16.3634 32.2103 50.0837
v  16.8006 82.2103 53.8467
v  18.8490 82.2103 53.8467
v  18.8490 82.2103 50.0837
v  16.8006 82.2103 50.0837
v  -19.3121 32.2103 50.0837
v  -16.3634 32.2103 20.5605
v  -19.3121 32.2103 20.5605
v  16.8006 32.2103 20.5605
v  18.8490 32.2103 50.0837
v  18.8490 32.2103 20.5605
v  -16.3634 32.2103 16.9517
v  -19.3121 32.2103 16.9517
v  16.8006 32.2103 16.9517
v  18.8490 32.2103 16.9517
v  -19.3121 29.2103 53.8467
v  -19.3121 32.2103 53.8467
v  18.8490 29.2103 53.8467
v  18.8490 32.2103 53.8467
v  18.8490 29.2103 16.9517
v  -19.3121 29.2103 16.9517
v  -16.3634 41.3701 53.8467
v  -19.3121 41.3701 53.8467
v  -19.3121 41.3701 50.0837
v  -16.3634 41.3701 50.0837
v  18.8490 41.3701 53.8467
v  16.8006 41.3701 53.8467
v  18.8490 41.3701 50.0837
v  16.8006 41.3701 50.0837
v  -19.3121 77.7955 53.8467
v  -16.3634 77.7955 53.8467
v  -16.3634 77.7955 50.0837
v  -19.3121 77.7955 50.0837
v  16.8006 77.7955 53.8467
v  18.8490 77.7955 53.8467
v  18.8490 77.7955 50.0837
v  16.8006 77.7955 50.0837
v  -19.3121 65.1242 53.8467
v  -16.3634 65.1242 53.8467
v  -16.3634 65.1242 50.0837
v  -19.3121 65.1242 50.0837
v  16.8006 65.1242 50.0837
v  16.8006 65.1242 53.8467
v  18.8490 65.1242 53.8467
v  18.8490 65.1242 50.0837
v  -19.3121 60.6738 53.8467
v  -16.3634 60.6738 53.8467
v  -16.3634 60.6738 50.0837
v  -19.3121 60.6738 50.0837
v  16.8006 60.6738 53.8467
v  18.8490 60.6738 53.8467
v  18.8490 60.6738 50.0837
v  16.8006 60.6738 50.0837
v  -19.3121 53.9360 53.8467
v  -16.3634 53.9360 53.8467
v  -16.3634 53.9360 50.0837
v  -19.3121 53.9360 50.0837
v  16.8006 53.9360 50.0837
v  16.8006 53.9360 53.8467
v  18.8490 53.9360 53.8467
v  18.8490 53.9360 50.0837
v  -19.3121 49.4944 53.8467
v  -16.3634 49.4944 53.8467
v  -16.3634 49.4944 50.0837
v  -19.3121 49.4944 50.0837
v  16.8006 49.4944 53.8467
v  18.8490 49.4944 53.8467
v  18.8490 49.4944 50.0837
v  16.8006 49.4944 50.0837
# 104 vertices

vn 0.0000 -1.0000 -0.0000
vn 0.0000 -1.0000 0.0000
vn 0.0000 1.0000 -0.0000
vn 0.0000 1.0000 0.0000
vn 0.0000 0.0000 1.0000
vn 1.0000 0.0000 -0.0000
vn 0.0000 0.0000 -1.0000
vn -1.0000 0.0000 -0.0000
# 8 vertex normals

g chair
usemtl wire_135110008
f 49//10 50//10 51//10 
f 51//10 52//10 49//10 
f 53//10 54//11 55//11 
f 55//11 56//10 53//10 
f 57//10 58//10 59//10 
f 59//10 60//10 57//10 
f 61//11 62//11 63//10 
f 63//10 54//11 61//11 
f 54//11 63//10 64//10 
f 64//10 55//11 54//11 
f 55//11 64//10 65//11 
f 65//11 66//11 55//11 
f 67//10 68//10 69//10 
f 69//10 70//10 67//10 
f 63//10 71//10 72//10 
f 72//10 64//10 63//10 
f 73//10 74//10 75//10 
f 75//10 76//10 73//10 
f 77//12 78//12 79//12 
f 79//12 80//12 77//12 
f 81//12 82//12 83//12 
f 83//12 84//12 81//12 
f 85//12 86//12 87//12 
f 87//12 88//12 85//12 
f 89//12 84//12 90//13 
f 90//13 91//13 89//12 
f 84//12 83//12 92//13 
f 92//13 90//13 84//12 
f 83//12 93//12 94//13 
f 94//13 92//13 83//12 
f 91//13 90//13 95//13 
f 95//13 96//13 91//13 
f 90//13 92//13 97//13 
f 97//13 95//13 90//13 
f 92//13 94//13 98//13 
f 98//13 97//13 92//13 
f 99//14 53//14 81//14 
f 81//14 100//14 99//14 
f 53//14 56//14 82//14 
f 82//14 81//14 53//14 
f 56//14 101//14 102//14 
f 102//14 82//14 56//14 
f 101//15 66//15 93//15 
f 93//15 102//15 101//15 
f 66//15 65//15 94//15 
f 94//15 93//15 66//15 
f 65//15 103//15 98//15 
f 98//15 94//15 65//15 
f 103//16 72//16 97//16 
f 97//16 98//16 103//16 
f 72//16 71//16 95//16 
f 95//16 97//16 72//16 
f 71//16 104//16 96//16 
f 96//16 95//16 71//16 
f 104//17 62//17 91//17 
f 91//17 96//17 104//17 
f 62//17 61//17 89//17 
f 89//17 91//17 62//17 
f 61//17 99//17 100//17 
f 100//17 89//17 61//17 
f 99//17 61//17 50//17 
f 50//17 49//17 99//17 
f 61//16 54//16 51//16 
f 51//16 50//16 61//16 
f 54//15 53//15 52//15 
f 52//15 51//15 54//15 
f 53//14 99//14 49//14 
f 49//14 52//14 53//14 
f 56//17 55//17 58//17 
f 58//17 57//17 56//17 
f 55//16 66//16 59//16 
f 59//16 58//16 55//16 
f 66//15 101//15 60//15 
f 60//15 59//15 66//15 
f 101//14 56//14 57//14 
f 57//14 60//14 101//14 
f 63//14 62//14 67//14 
f 67//14 70//14 63//14 
f 62//17 104//17 68//17 
f 68//17 67//17 62//17 
f 104//16 71//16 69//16 
f 69//16 68//16 104//16 
f 71//15 63//15 70//15 
f 70//15 69//15 71//15 
f 65//14 64//14 73//14 
f 73//14 76//14 65//14 
f 64//17 72//17 74//17 
f 74//17 73//17 64//17 
f 72//16 103//16 75//16 
f 75//16 74//16 72//16 
f 103//15 65//15 76//15 
f 76//15 75//15 103//15 
f 81//14 105//14 106//14 
f 106//14 100//14 81//14 
f 89//16 107//16 108//16 
f 108//16 84//16 89//16 
f 100//17 106//17 107//17 
f 107//17 89//17 100//17 
f 102//14 109//14 110//14 
f 110//14 82//14 102//14 
f 93//15 111//15 109//15 
f 109//15 102//15 93//15 
f 83//16 112//16 111//16 
f 111//16 93//16 83//16 
f 78//14 77//14 113//14 
f 113//14 114//14 78//14 
f 80//16 79//16 115//16 
f 115//16 116//16 80//16 
f 77//17 80//17 116//17 
f 116//17 113//17 77//17 
f 86//14 85//14 117//14 
f 117//14 118//14 86//14 
f 87//15 86//15 118//15 
f 118//15 119//15 87//15 
f 88//16 87//16 119//16 
f 119//16 120//16 88//16 
f 114//14 113//14 121//14 
f 121//14 122//14 114//14 
f 115//15 114//15 122//15 
f 122//15 123//15 115//15 
f 116//16 115//16 123//16 
f 123//16 124//16 116//16 
f 113//17 116//17 124//17 
f 124//17 121//17 113//17 
f 117//17 120//17 125//17 
f 125//17 126//17 117//17 
f 118//14 117//14 126//14 
f 126//14 127//14 118//14 
f 119//15 118//15 127//15 
f 127//15 128//15 119//15 
f 120//16 119//16 128//16 
f 128//16 125//16 120//16 
f 122//14 121//14 129//14 
f 129//14 130//14 122//14 
f 124//16 123//16 131//16 
f 131//16 132//16 124//16 
f 121//17 124//17 132//17 
f 132//17 129//17 121//17 
f 127//14 126//14 133//14 
f 133//14 134//14 127//14 
f 128//15 127//15 134//15 
f 134//15 135//15 128//15 
f 125//16 128//16 135//16 
f 135//16 136//16 125//16 
f 130//14 129//14 137//14 
f 137//14 138//14 130//14 
f 131//15 130//15 138//15 
f 138//15 139//15 131//15 
f 132//16 131//16 139//16 
f 139//16 140//16 132//16 
f 129//17 132//17 140//17 
f 140//17 137//17 129//17 
f 133//17 136//17 141//17 
f 141//17 142//17 133//17 
f 134//14 133//14 142//14 
f 142//14 143//14 134//14 
f 135//15 134//15 143//15 
f 143//15 144//15 135//15 
f 136//16 135//16 144//16 
f 144//16 141//16 136//16 
f 138//14 137//14 145//14 
f 145//14 146//14 138//14 
f 140//16 139//16 147//16 
f 147//16 148//16 140//16 
f 137//17 140//17 148//17 
f 148//17 145//17 137//17 
f 143//14 142//14 149//14 
f 149//14 150//14 143//14 
f 144//15 143//15 150//15 
f 150//15 151//15 144//15 
f 141//16 144//16 151//16 
f 151//16 152//16 141//16 
f 146//14 145//14 106//14 
f 106//14 105//14 146//14 
f 147//15 146//15 105//15 
f 105//15 108//15 147//15 
f 148//16 147//16 108//16 
f 108//16 107//16 148//16 
f 145//17 148//17 107//17 
f 107//17 106//17 145//17 
f 149//17 152//17 112//17 
f 112//17 110//17 149//17 
f 150//14 149//14 110//14 
f 110//14 109//14 150//14 
f 151//15 150//15 109//15 
f 109//15 111//15 151//15 
f 152//16 151//16 111//16 
f 111//16 112//16 152//16 
f 79//12 78//12 85//12 
f 85//12 88//12 79//12 
f 78//14 114//14 117//14 
f 117//14 85//14 78//14 
f 114//10 115//10 120//10 
f 120//10 117//10 114//10 
f 115//16 79//16 88//16 
f 88//16 120//16 115//16 
f 123//12 122//12 126//12 
f 126//12 125//12 123//12 
f 122//14 130//14 133//14 
f 133//14 126//14 122//14 
f 130//10 131//10 136//10 
f 136//10 133//10 130//10 
f 131//16 123//16 125//16 
f 125//16 136//16 131//16 
f 139//12 138//12 142//12 
f 142//12 141//12 139//12 
f 138//14 146//14 149//14 
f 149//14 142//14 138//14 
f 146//10 147//10 152//10 
f 152//10 149//10 146//10 
f 147//16 139//16 141//16 
f 141//16 152//16 147//16 
f 81//10 84//10 83//10 
f 83//10 82//10 81//10 
f 84//16 108//16 112//16 
f 112//16 83//16 84//16 
f 108//12 105//12 110//12 
f 110//12 112//12 108//12 
f 105//14 81//14 82//14 
f 82//14 110//14 105//14 
# 220 faces

